<?xml version="1.0" standalone="no"?>
<!DOCTYPE svg PUBLIC "-//W3C//DTD SVG 20010904//EN"
 "http://www.w3.org/TR/2001/REC-SVG-20010904/DTD/svg10.dtd">
<svg version="1.0" xmlns="http://www.w3.org/2000/svg"
 width="367.000000pt" height="137.000000pt" viewBox="0 0 367.000000 137.000000"
 preserveAspectRatio="xMidYMid meet">

<g transform="translate(0.000000,137.000000) scale(0.100000,-0.100000)"
fill="#000000" stroke="none">
<path d="M0 685 l0 -685 1835 0 1835 0 0 685 0 685 -1835 0 -1835 0 0 -685z
m670 241 l0 -55 -42 -3 c-42 -3 -43 -4 -46 -40 l-3 -38 45 0 c50 0 54 -7 40
-79 -6 -28 -10 -31 -45 -31 l-39 0 0 -145 0 -146 -62 3 -63 3 0 140 0 140 -30
5 c-29 5 -30 7 -30 55 0 48 1 50 30 55 29 5 30 8 33 60 5 94 47 129 155 130
l57 0 0 -54z m1200 -49 l0 -92 74 3 c81 4 126 -11 148 -51 18 -33 17 -234 -2
-271 -26 -52 -61 -69 -149 -74 -44 -2 -105 -1 -135 2 l-56 7 0 273 0 273 53
10 c28 6 55 11 60 12 4 0 7 -41 7 -92z m1160 -84 l0 -178 56 88 56 87 64 0
c35 0 64 -3 64 -6 0 -4 -25 -46 -55 -94 -30 -48 -55 -91 -55 -96 0 -5 25 -49
55 -99 30 -49 55 -93 55 -97 0 -5 -29 -8 -64 -8 l-64 0 -56 92 -56 93 0 -93 0
-92 -60 0 -60 0 0 279 0 278 53 10 c28 6 55 11 60 12 4 0 7 -79 7 -176z
m-2097 -24 c50 -23 57 -52 57 -224 l0 -155 -49 0 c-29 0 -51 5 -53 12 -3 9
-12 9 -38 0 -75 -27 -155 -7 -178 43 -17 36 -15 106 3 132 19 27 72 43 143 43
43 0 52 3 52 18 0 33 -22 42 -97 42 l-73 0 0 39 c0 73 1 74 109 69 53 -3 109
-11 124 -19z m381 11 c23 -8 26 -15 26 -56 l0 -46 -74 7 c-67 6 -76 5 -95 -14
-17 -17 -21 -33 -21 -81 0 -48 4 -64 21 -81 19 -19 28 -20 95 -14 l74 7 0 -46
c0 -41 -3 -48 -27 -57 -16 -6 -64 -9 -109 -7 -70 3 -85 7 -117 31 -47 36 -60
81 -56 190 4 96 19 126 79 158 39 21 159 26 204 9z m323 -7 c54 -25 73 -65 73
-150 l0 -73 -110 0 c-117 0 -131 -7 -93 -46 15 -14 30 -16 105 -10 l88 7 0
-49 c0 -47 -1 -50 -31 -56 -17 -3 -66 -6 -108 -6 -90 0 -135 18 -168 69 -20
30 -23 47 -23 135 0 116 17 157 73 181 45 20 151 19 194 -2z m773 -1 c19 -9
45 -32 57 -51 20 -29 23 -47 23 -131 0 -84 -3 -102 -23 -131 -31 -47 -79 -69
-151 -69 -74 0 -134 27 -161 72 -16 27 -19 52 -19 128 0 110 16 150 74 180 47
25 152 26 200 2z m389 0 c64 -32 76 -60 76 -180 0 -95 -3 -111 -22 -138 -31
-44 -79 -64 -153 -64 -74 0 -122 20 -153 64 -19 27 -22 43 -22 138 0 92 3 110
21 135 32 43 80 63 154 63 42 0 77 -6 99 -18z m566 -315 c26 -20 13 -67 -18
-67 -43 0 -60 35 -31 64 19 19 25 20 49 3z"/>
<path d="M1893 680 c-22 -9 -23 -15 -23 -100 l0 -90 39 0 c59 0 71 18 71 105
0 63 -3 76 -19 85 -23 12 -38 12 -68 0z"/>
<path d="M784 515 c-8 -21 4 -35 31 -35 36 0 55 10 55 31 0 16 -7 19 -40 19
-26 0 -43 -5 -46 -15z"/>
<path d="M1506 684 c-31 -30 -20 -44 34 -44 37 0 50 4 50 14 0 20 -28 46 -50
46 -10 0 -26 -7 -34 -16z"/>
<path d="M2276 674 c-12 -11 -16 -35 -16 -84 0 -75 14 -100 55 -100 35 0 55
36 55 100 0 64 -20 100 -55 100 -13 0 -31 -7 -39 -16z"/>
<path d="M2668 679 c-15 -8 -18 -24 -18 -90 0 -75 1 -80 25 -91 19 -8 31 -8
50 0 24 11 25 16 25 91 0 69 -3 82 -19 91 -24 12 -41 12 -63 -1z"/>
<path d="M3349 448 c-4 -19 -6 -50 -3 -40 3 6 10 10 15 6 5 -3 9 2 9 10 0 12
-18 34 -21 24z"/>
</g>
</svg>
